<svg xmlns="http://www.w3.org/2000/svg" width="1024" height="1024" viewBox="0 0 1024 1024" fill="none">
  <defs>
    <linearGradient id="bg" x1="182" y1="152" x2="860" y2="874" gradientUnits="userSpaceOnUse">
      <stop stop-color="#F8FBF8" />
      <stop offset="1" stop-color="#E6F5EB" />
    </linearGradient>
    <linearGradient id="sheet" x1="300" y1="268" x2="724" y2="780" gradientUnits="userSpaceOnUse">
      <stop stop-color="#FFFDF8" />
      <stop offset="1" stop-color="#F4F1E9" />
    </linearGradient>
    <linearGradient id="stroke" x1="296" y1="252" x2="724" y2="792" gradientUnits="userSpaceOnUse">
      <stop stop-color="#17211C" />
      <stop offset="1" stop-color="#0E1814" />
    </linearGradient>
    <linearGradient id="accent" x1="220" y1="518" x2="804" y2="518" gradientUnits="userSpaceOnUse">
      <stop stop-color="#2BA85F" />
      <stop offset="1" stop-color="#4CC173" />
    </linearGradient>
    <filter id="shadow" x="184" y="184" width="656" height="656" filterUnits="userSpaceOnUse">
      <feDropShadow dx="0" dy="18" stdDeviation="22" flood-color="#0E1814" flood-opacity="0.18"/>
    </filter>
  </defs>
  <rect x="64" y="64" width="896" height="896" rx="208" fill="url(#bg)"/>
  <g filter="url(#shadow)">
    <path d="M306 240H654L734 320V748L686 710L638 748L590 710L542 748L494 710L446 748L398 710L350 748L306 710V240Z" fill="url(#sheet)" stroke="url(#stroke)" stroke-width="26" stroke-linejoin="round"/>
    <path d="M654 240V320H734" fill="none" stroke="url(#stroke)" stroke-width="26" stroke-linejoin="round"/>
    <path d="M654 240V320H734" fill="#FFFDF8" opacity="0.8"/>
    <rect x="352" y="340" width="232" height="24" rx="12" fill="#0E1814" opacity="0.34"/>
    <rect x="352" y="410" width="288" height="24" rx="12" fill="#0E1814" opacity="0.2"/>
    <rect x="352" y="608" width="180" height="24" rx="12" fill="#0E1814" opacity="0.36"/>
    <rect x="352" y="678" width="276" height="24" rx="12" fill="#0E1814" opacity="0.2"/>
    <rect x="220" y="502" width="584" height="34" rx="17" fill="url(#accent)"/>
    <circle cx="220" cy="519" r="30" fill="#2BA85F"/>
    <circle cx="804" cy="519" r="30" fill="#2BA85F"/>
    <circle cx="220" cy="519" r="12" fill="#F7FFFA" opacity="0.9"/>
    <circle cx="804" cy="519" r="12" fill="#F7FFFA" opacity="0.9"/>
    <path d="M680 248V308H740" fill="#F7F5EE" opacity="0.95"/>
  </g>
</svg>