<svg xmlns="http://www.w3.org/2000/svg" width="1024" height="1024" viewBox="0 0 1024 1024">
    
    <g transform="translate(102.4, 102.4) scale(8.192)">
      <path d="M24 16 H68 L78 26 V82 L72 78 L66 82 L60 78 L54 82 L48 78 L42 82 L36 78 L30 82 L24 78 Z" fill="#FAF8F2" stroke="#0E1814" stroke-width="4.5" stroke-linejoin="round"></path>
      <path d="M68 16 V26 H78" fill="none" stroke="#0E1814" stroke-width="4.5" stroke-linejoin="round"></path>
      <rect x="32" y="34" width="32" height="2.5" rx="1" fill="#0E1814" opacity="0.5"></rect>
      <rect x="32" y="42" width="38" height="2.5" rx="1" fill="#0E1814" opacity="0.35"></rect>
      <rect x="32" y="62" width="24" height="2.5" rx="1" fill="#0E1814" opacity="0.5"></rect>
      <rect x="32" y="70" width="36" height="2.5" rx="1" fill="#0E1814" opacity="0.35"></rect>
      <line x1="18" y1="52" x2="86" y2="52" stroke="#2BA85F" stroke-width="3" stroke-linecap="round"></line>
      <circle cx="18" cy="52" r="3" fill="#2BA85F"></circle>
      <circle cx="86" cy="52" r="3" fill="#2BA85F"></circle>
    </g>
  </svg>